<svg viewBox="0 0 1120 164" xmlns="http://www.w3.org/2000/svg" fill-rule="evenodd" clip-rule="evenodd" stroke-linejoin="round" stroke-miterlimit="2"><path d="M.222 132.041V3.239h20.265c15.232 0 25.7 2.651 31.404 7.918 5.67 5.268 8.522 14.696 8.522 28.25V96.98c0 12.179-2.55 21.07-7.684 26.64-5.133 5.603-13.319 8.388-24.559 8.388H.222v.033zm19.024-16.775h5.401c5.905 0 10.133-1.711 12.616-5.167 2.482-3.456 3.724-9.361 3.724-17.782V38.736c0-7.314-1.175-12.313-3.49-14.997-2.315-2.684-6.542-4.06-12.682-4.06h-5.569v95.587zM79.704 21.256V3.239h17.581v18.017H79.704zm0 110.785V36.388h17.581v95.653H79.704zM126.307 104.831c-4.463-2.382-7.65-6.005-9.562-10.904-1.913-4.898-2.886-12.145-2.886-21.707 0-12.984 2.147-22.446 6.408-28.351 4.261-5.905 11.039-8.857 20.299-8.857 4.227 0 7.884.705 10.904 2.08 3.053 1.376 5.569 3.523 7.616 6.442 1.51-2.785 3.388-4.865 5.636-6.274 2.248-1.376 4.966-2.08 8.086-2.08h1.208v15.467a80.132 80.132 0 01-2.617-.269c-.57-.067-1.074-.1-1.476-.1-1.376 0-2.684.167-3.859.536a9.942 9.942 0 00-3.254 1.644c.57 2.45 1.006 5.201 1.308 8.254.302 3.087.437 6.408.437 9.998 0 12.246-2.047 21.338-6.174 27.344-4.127 6.006-10.333 8.992-18.688 8.992-.939 0-1.644 0-2.18-.034a13.546 13.546 0 01-1.376-.134c-1.342.805-2.349 1.711-3.053 2.751-.705 1.007-1.04 2.08-1.04 3.187 0 1.041.47 1.946 1.442 2.685.973.738 2.181 1.207 3.691 1.375l5.637.705c7.884.973 12.95 1.946 15.232 2.885 5.267 2.08 9.159 4.63 11.608 7.616 2.45 2.986 3.691 6.61 3.691 10.904 0 7.147-3.087 12.917-9.227 17.346-6.139 4.429-14.225 6.643-24.257 6.643-9.327 0-16.54-1.476-21.607-4.429-5.066-2.952-7.616-7.146-7.616-12.615 0-3.422 1.275-6.408 3.859-8.991 2.583-2.584 6.441-4.731 11.608-6.476-3.288-.939-5.804-2.281-7.482-4.093-1.677-1.812-2.516-4.06-2.516-6.777 0-2.718.839-5.335 2.516-7.784 1.712-2.449 4.261-4.798 7.684-6.979zm11.575 27.713c-3.121.873-5.603 2.148-7.382 3.859-1.811 1.711-2.684 3.623-2.684 5.771 0 2.851 1.242 4.999 3.691 6.475s6.073 2.214 10.837 2.214c4.395 0 7.985-.872 10.77-2.65 2.784-1.779 4.16-3.959 4.16-6.576 0-2.785-1.51-4.899-4.529-6.308-3.02-1.375-7.985-2.315-14.863-2.785zm1.107-39.892c2.952 0 4.999-1.409 6.14-4.261 1.14-2.851 1.711-8.622 1.711-17.379 0-8.824-.571-14.628-1.711-17.48-1.141-2.852-3.188-4.261-6.14-4.261-2.953 0-4.999 1.409-6.174 4.261-1.174 2.852-1.744 8.656-1.744 17.48 0 8.757.57 14.561 1.744 17.379 1.175 2.819 3.221 4.261 6.174 4.261zM182.84 21.256V3.239h17.581v18.017H182.84zm0 110.785V36.388h17.581v95.653H182.84zM222.665 102.986V51.318h-10.267V36.354h10.267V10.688h17.815v25.666h12.683v14.964H240.48v52.708c0 5.737.537 9.462 1.577 11.173 1.04 1.711 2.953 2.549 5.737 2.549 1.04 0 2.651-.1 4.798-.268.403-.067.738-.101.973-.101v14.427c-1.61.537-3.254.906-4.865 1.175-1.61.268-3.288.402-4.965.402-7.985 0-13.521-2.08-16.507-6.274-3.053-4.127-4.563-12.179-4.563-24.123zM300.671 132.041l-1.812-9.663c-2.483 3.523-5.301 6.207-8.421 7.986-3.121 1.811-6.442 2.684-9.898 2.684-5.737 0-10.334-2.013-13.756-6.039-3.422-4.027-5.133-9.495-5.133-16.407 0-9.159 2.919-17.144 8.723-23.955 5.838-6.811 15.199-13.119 28.149-18.923V62.49c0-4.395-.704-7.616-2.08-9.595-1.375-2.013-3.59-2.986-6.609-2.986-3.02 0-5.402 1.107-7.18 3.355-1.778 2.248-2.718 5.334-2.819 9.26h-16.909c.537-8.69 3.288-15.467 8.32-20.299 5-4.831 11.777-7.247 20.299-7.247 8.824 0 15.131 2.517 18.99 7.516 3.858 4.999 5.77 13.252 5.77 24.727v43.918c0 4.395.134 8.321.436 11.743.302 3.422.739 6.475 1.376 9.126h-17.446v.033zm-2.181-49.32c-6.61 3.255-11.475 6.744-14.561 10.535-3.087 3.758-4.664 8.019-4.664 12.783 0 3.288.738 5.939 2.181 7.918 1.443 1.98 3.389 2.953 5.838 2.953 1.912 0 3.825-.638 5.703-1.913 1.879-1.275 3.725-3.187 5.536-5.737V82.721h-.033z" fill-rule="nonzero"/><path d="M334.825 3.239h17.581v128.802h-17.581z"/><path d="M385.252 132.041V3.239h23.654c14.896 0 25.096 2.651 30.598 7.985 5.503 5.335 8.254 15.031 8.254 29.055 0 13.555-2.751 23.318-8.22 29.257-5.469 5.938-14.461 8.924-26.908 8.924h-8.354v53.581h-19.024zm19.057-70.188h6.274c6.71 0 11.374-1.577 13.957-4.697 2.584-3.121 3.859-9.059 3.859-17.749 0-7.146-1.309-12.212-3.926-15.232-2.617-3.02-6.945-4.529-13.051-4.529h-7.146v42.207h.033zM459.702 132.041V3.239h17.748v43.818c2.852-3.758 5.939-6.71 9.26-8.858 3.322-2.147 6.476-3.221 9.428-3.221 5.905 0 10.099 2.148 12.548 6.442 2.449 4.295 3.691 11.944 3.691 22.949v67.672h-17.816V63.698c0-4.395-.537-7.549-1.644-9.394-1.107-1.846-2.919-2.785-5.469-2.785-1.577 0-3.254.604-5.032 1.812-1.812 1.208-3.456 2.885-4.966 4.965v73.745h-17.748zM582.934 68.999v30.8c0 11.642-2.181 20.231-6.576 25.733-4.361 5.503-11.139 8.254-20.298 8.254-9.227 0-16.004-2.751-20.399-8.254-4.362-5.502-6.576-14.091-6.576-25.733v-30.8c0-11.609 2.181-20.164 6.576-25.7 4.362-5.536 11.172-8.321 20.399-8.321 9.092 0 15.87 2.785 20.265 8.355 4.395 5.569 6.609 14.125 6.609 25.666zm-17.815-5.938c0-4.53-.738-7.818-2.181-9.864-1.443-2.047-3.724-3.087-6.878-3.087-3.187 0-5.502 1.04-6.945 3.087-1.443 2.046-2.181 5.334-2.181 9.864v42.441c0 4.53.738 7.851 2.181 9.965s3.758 3.187 6.945 3.187c3.12 0 5.435-1.073 6.878-3.187 1.443-2.114 2.181-5.435 2.181-9.965V63.061zM603.534 102.986V51.318h-10.266V36.354h10.266V10.688h17.816v25.666h12.682v14.964H621.35v52.708c0 5.737.537 9.462 1.577 11.173 1.04 1.711 2.952 2.549 5.737 2.549 1.04 0 2.651-.1 4.798-.268.402-.067.738-.101.973-.101v14.427c-1.611.537-3.255.906-4.865 1.175-1.61.268-3.288.402-4.966.402-7.985 0-13.521-2.08-16.507-6.274-3.053-4.127-4.563-12.179-4.563-24.123zM699.725 68.999v30.8c0 11.642-2.181 20.231-6.576 25.733-4.362 5.503-11.139 8.254-20.298 8.254-9.227 0-16.004-2.751-20.399-8.254-4.362-5.502-6.576-14.091-6.576-25.733v-30.8c0-11.609 2.18-20.164 6.576-25.7 4.361-5.536 11.172-8.321 20.399-8.321 9.092 0 15.869 2.785 20.264 8.355 4.395 5.569 6.61 14.125 6.61 25.666zm-17.849-5.938c0-4.53-.738-7.818-2.181-9.864-1.443-2.047-3.724-3.087-6.878-3.087-3.187 0-5.502 1.04-6.945 3.087-1.443 2.046-2.181 5.334-2.181 9.864v42.441c0 4.53.738 7.851 2.181 9.965s3.758 3.187 6.945 3.187c3.12 0 5.435-1.073 6.878-3.187 1.443-2.114 2.181-5.435 2.181-9.965V63.061zM795.144 132.041h-9.059l-4.597-9.495c-2.617 3.59-5.703 6.308-9.26 8.12-3.556 1.811-7.482 2.751-11.776 2.751-9.461 0-16.339-3.59-20.701-10.737-4.362-7.146-6.509-18.52-6.509-34.121V46.721c0-16.305 2.416-28.015 7.247-35.161C745.321 4.414 753.239.824 764.176.824c10.132 0 17.849 3.355 23.083 10.098 5.234 6.711 7.885 16.507 7.885 29.391v4.697h-19.393v-8.421c0-6.777-.939-11.709-2.785-14.796-1.845-3.087-4.797-4.597-8.79-4.597-3.992 0-6.945 1.544-8.79 4.597-1.846 3.087-2.785 7.985-2.785 14.796v61.465c0 6.777.939 11.709 2.785 14.796 1.845 3.087 4.798 4.597 8.79 4.597 3.993 0 6.912-1.544 8.79-4.597 1.846-3.087 2.785-7.985 2.785-14.796V83.09h-10.166V67.02h29.559v65.021zM848.122 132.041l-1.81-9.663c-2.48 3.523-5.3 6.207-8.423 7.986-3.12 1.811-6.441 2.684-9.897 2.684-5.737 0-10.334-2.013-13.756-6.039-3.422-4.027-5.133-9.495-5.133-16.407 0-9.159 2.919-17.144 8.723-23.955 5.838-6.811 15.199-13.119 28.116-18.923V62.49c0-4.395-.7-7.616-2.08-9.595-1.38-2.013-3.59-2.986-6.61-2.986-3.02 0-5.402 1.107-7.18 3.355-1.778 2.248-2.718 5.334-2.818 9.26h-16.876c.537-8.69 3.288-15.467 8.32-20.299 4.999-4.831 11.777-7.247 20.299-7.247 8.825 0 15.135 2.517 18.985 7.516 3.86 4.999 5.78 13.252 5.78 24.727v43.918c0 4.395.13 8.321.43 11.743.3 3.422.74 6.475 1.38 9.126h-17.45v.033zm-2.18-49.32c-6.61 3.255-11.475 6.744-14.561 10.535-3.087 3.758-4.664 8.019-4.664 12.783 0 3.288.738 5.939 2.181 7.918 1.442 1.98 3.388 2.953 5.838 2.953 1.912 0 3.824-.638 5.706-1.913 1.88-1.275 3.72-3.187 5.53-5.737V82.721h-.03z" fill-rule="nonzero"/><path d="M882.272 3.239h17.581v128.802h-17.581zM919.852 3.239h17.581v128.802h-17.581z"/><path d="M1008.892 98.725v5.57c0 9.327-2.38 16.574-7.15 21.741-4.76 5.166-11.4 7.75-19.99 7.75-8.69 0-15.2-2.818-19.53-8.421-4.33-5.637-6.47-14.159-6.47-25.566v-30.8c0-11.609 2.21-20.164 6.61-25.7 4.39-5.536 11.24-8.321 20.53-8.321 9.06 0 15.8 3.154 20.3 9.495 4.49 6.308 6.74 15.87 6.74 28.619v14.427h-36.33v18.017c0 4.529.73 7.851 2.18 9.965 1.44 2.113 3.75 3.187 6.94 3.187 3.12 0 5.44-1.074 6.88-3.187 1.44-2.114 2.18-5.436 2.18-9.965v-6.777h17.11v-.034zm-35.29-35.664v9.494h18.18v-9.494c0-4.53-.73-7.818-2.18-9.864-1.44-2.047-3.72-3.087-6.87-3.087-3.19 0-5.51 1.04-6.95 3.087-1.48 2.08-2.18 5.368-2.18 9.864zM1025.402 132.041V36.388h16.51V49.07c2.45-4.697 5.3-8.153 8.55-10.401 3.29-2.214 7.28-3.456 12.05-3.691l.1 19.225c-1.04-.302-2.22-.503-3.49-.637-1.28-.135-2.82-.202-4.6-.202-4.22 0-7.18 1.175-8.86 3.49-1.67 2.315-2.51 6.844-2.51 13.554v61.633h-17.75zM1067.942 162.807v-16.003c.8.167 1.61.302 2.35.402.74.101 1.51.134 2.25.134 3.95 0 6.87-1.275 8.79-3.858 1.91-2.583 2.88-6.509 2.88-11.776 0-3.49-1.14-10.804-3.39-22.01-.1-.469-.16-.771-.16-.973l-14.97-72.335h17.21l11.21 80.186 8.79-80.186h16.88l-18.36 97.666c-2.08 10.837-5.23 18.42-9.39 22.681-4.16 4.294-10.3 6.441-18.35 6.441-.87 0-2.28-.067-4.26-.167-.64-.067-1.14-.135-1.48-.202z" fill-rule="nonzero"/></svg>