<?xml version="1.0" standalone="no"?><!DOCTYPE svg PUBLIC "-//W3C//DTD SVG 1.1//EN" "http://www.w3.org/Graphics/SVG/1.1/DTD/svg11.dtd"><svg width="100%" height="100%" viewBox="0 0 1280 164" version="1.1" xmlns="http://www.w3.org/2000/svg" xmlns:xlink="http://www.w3.org/1999/xlink" xml:space="preserve" style="fill-rule:evenodd;clip-rule:evenodd;stroke-miterlimit:1.41421;"><g id="Layer_1"><g><rect x="0" y="3.239" width="128.802" height="128.802" style="fill:#000;"/><path d="M0.168,3.508l15.668,0c15.769,0 17.044,5.267 17.044,25.7l0,20.935c0,18.017 -3.221,23.654 -18.587,23.654l-14.125,0l0,-70.289ZM9.898,65.61l4.663,0c7.214,0 8.556,-3.791 8.556,-15.869l0,-24.157c0,-10.401 -1.074,-13.923 -9.361,-13.923l-3.892,0l0,53.949l0.034,0Z" style="fill:#fff;fill-rule:nonzero;stroke-width:0.67px;stroke:#fff;"/><path d="M39.791,3.508l16.071,0c13.253,0 15.769,3.59 15.769,19.862c0,16.272 -2.516,19.862 -15.769,19.862l-6.341,0l0,30.565l-9.73,0l0,-70.289ZM49.521,35.046l5.066,0c6.61,0 7.314,-1.074 7.314,-11.676c0,-10.602 -0.671,-11.676 -7.314,-11.676l-5.066,0l0,23.352Z" style="fill:#fff;fill-rule:nonzero;stroke-width:0.67px;stroke:#fff;"/><path d="M100.351,22.095l0,-3.59c0,-4.966 -2.45,-7.985 -6.241,-7.985c-4.462,0 -6.71,4.093 -6.71,11.575l0,35.43c0,5.636 2.718,9.26 6.71,9.26c2.718,0 4.966,-0.403 6.241,-0.671l0,-20.634l-6.442,0l0,-8.187l16.171,0l0,35.33c-3.791,0.872 -10.501,1.744 -16.07,1.744c-12.381,0 -16.34,-6.509 -16.34,-17.413l0,-35.53c0,-13.152 3.993,-18.487 16.541,-18.487c10.401,0 15.869,3.792 15.869,12.75l0,6.441l-9.729,0l0,-0.033Z" style="fill:#fff;fill-rule:nonzero;stroke-width:0.67px;stroke:#fff;"/><path d="M160.44,132.041l0,-128.802l20.265,0c15.232,0 25.7,2.651 31.404,7.918c5.67,5.268 8.522,14.696 8.522,28.25l0,57.573c0,12.179 -2.55,21.07 -7.684,26.64c-5.133,5.603 -13.319,8.388 -24.559,8.388l-27.948,0l0,0.033ZM179.464,115.266l5.401,0c5.905,0 10.133,-1.711 12.616,-5.167c2.482,-3.456 3.724,-9.361 3.724,-17.782l0,-53.581c0,-7.314 -1.175,-12.313 -3.49,-14.997c-2.315,-2.684 -6.542,-4.06 -12.682,-4.06l-5.569,0l0,95.587Z" style="fill:#000;fill-rule:nonzero;"/><path d="M239.922,21.256l0,-18.017l17.581,0l0,18.017l-17.581,0ZM239.922,132.041l0,-95.653l17.581,0l0,95.653l-17.581,0Z" style="fill:#000;fill-rule:nonzero;"/><path d="M286.525,104.831c-4.463,-2.382 -7.65,-6.005 -9.562,-10.904c-1.913,-4.898 -2.886,-12.145 -2.886,-21.707c0,-12.984 2.147,-22.446 6.408,-28.351c4.261,-5.905 11.039,-8.857 20.299,-8.857c4.227,0 7.884,0.705 10.904,2.08c3.053,1.376 5.569,3.523 7.616,6.442c1.51,-2.785 3.388,-4.865 5.636,-6.274c2.248,-1.376 4.966,-2.08 8.086,-2.08l1.208,0l0,15.467c-1.174,-0.101 -2.047,-0.202 -2.617,-0.269c-0.57,-0.067 -1.074,-0.1 -1.476,-0.1c-1.376,0 -2.684,0.167 -3.859,0.536c-1.174,0.336 -2.281,0.906 -3.254,1.644c0.57,2.45 1.006,5.201 1.308,8.254c0.302,3.087 0.437,6.408 0.437,9.998c0,12.246 -2.047,21.338 -6.174,27.344c-4.127,6.006 -10.333,8.992 -18.688,8.992c-0.939,0 -1.644,0 -2.18,-0.034c-0.537,-0.033 -0.973,-0.067 -1.376,-0.134c-1.342,0.805 -2.349,1.711 -3.053,2.751c-0.705,1.007 -1.04,2.08 -1.04,3.187c0,1.041 0.47,1.946 1.442,2.685c0.973,0.738 2.181,1.207 3.691,1.375c1.342,0.168 3.221,0.403 5.637,0.705c7.884,0.973 12.95,1.946 15.232,2.885c5.267,2.08 9.159,4.63 11.608,7.616c2.45,2.986 3.691,6.61 3.691,10.904c0,7.147 -3.087,12.917 -9.227,17.346c-6.139,4.429 -14.225,6.643 -24.257,6.643c-9.327,0 -16.54,-1.476 -21.607,-4.429c-5.066,-2.952 -7.616,-7.146 -7.616,-12.615c0,-3.422 1.275,-6.408 3.859,-8.991c2.583,-2.584 6.441,-4.731 11.608,-6.476c-3.288,-0.939 -5.804,-2.281 -7.482,-4.093c-1.677,-1.812 -2.516,-4.06 -2.516,-6.777c0,-2.718 0.839,-5.335 2.516,-7.784c1.712,-2.449 4.261,-4.798 7.684,-6.979ZM298.1,132.544c-3.121,0.873 -5.603,2.148 -7.382,3.859c-1.811,1.711 -2.684,3.623 -2.684,5.771c0,2.851 1.242,4.999 3.691,6.475c2.449,1.476 6.073,2.214 10.837,2.214c4.395,0 7.985,-0.872 10.77,-2.65c2.784,-1.779 4.16,-3.959 4.16,-6.576c0,-2.785 -1.51,-4.899 -4.529,-6.308c-3.02,-1.375 -7.985,-2.315 -14.863,-2.785ZM299.207,92.652c2.952,0 4.999,-1.409 6.14,-4.261c1.14,-2.851 1.711,-8.622 1.711,-17.379c0,-8.824 -0.571,-14.628 -1.711,-17.48c-1.141,-2.852 -3.188,-4.261 -6.14,-4.261c-2.953,0 -4.999,1.409 -6.174,4.261c-1.174,2.852 -1.744,8.656 -1.744,17.48c0,8.757 0.57,14.561 1.744,17.379c1.175,2.819 3.221,4.261 6.174,4.261Z" style="fill:#000;fill-rule:nonzero;"/><path d="M343.058,21.256l0,-18.017l17.581,0l0,18.017l-17.581,0ZM343.058,132.041l0,-95.653l17.581,0l0,95.653l-17.581,0Z" style="fill:#000;fill-rule:nonzero;"/><path d="M382.883,102.986l0,-51.668l-10.267,0l0,-14.964l10.267,0l0,-25.666l17.815,0l0,25.666l12.683,0l0,14.964l-12.683,0l0,52.708c0,5.737 0.537,9.462 1.577,11.173c1.04,1.711 2.953,2.549 5.737,2.549c1.04,0 2.651,-0.1 4.798,-0.268c0.403,-0.067 0.738,-0.101 0.973,-0.101l0,14.427c-1.61,0.537 -3.254,0.906 -4.865,1.175c-1.61,0.268 -3.288,0.402 -4.965,0.402c-7.985,0 -13.521,-2.08 -16.507,-6.274c-3.053,-4.127 -4.563,-12.179 -4.563,-24.123Z" style="fill:#000;fill-rule:nonzero;"/><path d="M460.889,132.041l-1.812,-9.663c-2.483,3.523 -5.301,6.207 -8.421,7.986c-3.121,1.811 -6.442,2.684 -9.898,2.684c-5.737,0 -10.334,-2.013 -13.756,-6.039c-3.422,-4.027 -5.133,-9.495 -5.133,-16.407c0,-9.159 2.919,-17.144 8.723,-23.955c5.838,-6.811 15.199,-13.119 28.149,-18.923l0,-5.234c0,-4.395 -0.704,-7.616 -2.08,-9.595c-1.375,-2.013 -3.59,-2.986 -6.609,-2.986c-3.02,0 -5.402,1.107 -7.18,3.355c-1.778,2.248 -2.718,5.334 -2.819,9.26l-16.909,0c0.537,-8.69 3.288,-15.467 8.32,-20.299c5,-4.831 11.777,-7.247 20.299,-7.247c8.824,0 15.131,2.517 18.99,7.516c3.858,4.999 5.77,13.252 5.77,24.727l0,43.918c0,4.395 0.134,8.321 0.436,11.743c0.302,3.422 0.739,6.475 1.376,9.126l-17.446,0l0,0.033ZM458.708,82.721c-6.61,3.255 -11.475,6.744 -14.561,10.535c-3.087,3.758 -4.664,8.019 -4.664,12.783c0,3.288 0.738,5.939 2.181,7.918c1.443,1.98 3.389,2.953 5.838,2.953c1.912,0 3.825,-0.638 5.703,-1.913c1.879,-1.275 3.725,-3.187 5.536,-5.737l0,-26.539l-0.033,0Z" style="fill:#000;fill-rule:nonzero;"/><rect x="495.043" y="3.239" width="17.581" height="128.802" style="fill:#000;fill-rule:nonzero;"/><path d="M545.47,132.041l0,-128.802l23.654,0c14.896,0 25.096,2.651 30.598,7.985c5.503,5.335 8.254,15.031 8.254,29.055c0,13.555 -2.751,23.318 -8.22,29.257c-5.469,5.938 -14.461,8.924 -26.908,8.924l-8.354,0l0,53.581l-19.024,0ZM564.527,61.853l6.274,0c6.71,0 11.374,-1.577 13.957,-4.697c2.584,-3.121 3.859,-9.059 3.859,-17.749c0,-7.146 -1.309,-12.212 -3.926,-15.232c-2.617,-3.02 -6.945,-4.529 -13.051,-4.529l-7.146,0l0,42.207l0.033,0Z" style="fill:#000;fill-rule:nonzero;"/><path d="M619.92,132.041l0,-128.802l17.748,0l0,43.818c2.852,-3.758 5.939,-6.71 9.26,-8.858c3.322,-2.147 6.476,-3.221 9.428,-3.221c5.905,0 10.099,2.148 12.548,6.442c2.449,4.295 3.691,11.944 3.691,22.949l0,67.672l-17.816,0l0,-68.343c0,-4.395 -0.537,-7.549 -1.644,-9.394c-1.107,-1.846 -2.919,-2.785 -5.469,-2.785c-1.577,0 -3.254,0.604 -5.032,1.812c-1.812,1.208 -3.456,2.885 -4.966,4.965l0,73.745l-17.748,0Z" style="fill:#000;fill-rule:nonzero;"/><path d="M743.152,68.999l0,30.8c0,11.642 -2.181,20.231 -6.576,25.733c-4.361,5.503 -11.139,8.254 -20.298,8.254c-9.227,0 -16.004,-2.751 -20.399,-8.254c-4.362,-5.502 -6.576,-14.091 -6.576,-25.733l0,-30.8c0,-11.609 2.181,-20.164 6.576,-25.7c4.362,-5.536 11.172,-8.321 20.399,-8.321c9.092,0 15.87,2.785 20.265,8.355c4.395,5.569 6.609,14.125 6.609,25.666ZM725.337,63.061c0,-4.53 -0.738,-7.818 -2.181,-9.864c-1.443,-2.047 -3.724,-3.087 -6.878,-3.087c-3.187,0 -5.502,1.04 -6.945,3.087c-1.443,2.046 -2.181,5.334 -2.181,9.864l0,42.441c0,4.53 0.738,7.851 2.181,9.965c1.443,2.114 3.758,3.187 6.945,3.187c3.12,0 5.435,-1.073 6.878,-3.187c1.443,-2.114 2.181,-5.435 2.181,-9.965l0,-42.441Z" style="fill:#000;fill-rule:nonzero;"/><path d="M763.752,102.986l0,-51.668l-10.266,0l0,-14.964l10.266,0l0,-25.666l17.816,0l0,25.666l12.682,0l0,14.964l-12.682,0l0,52.708c0,5.737 0.537,9.462 1.577,11.173c1.04,1.711 2.952,2.549 5.737,2.549c1.04,0 2.651,-0.1 4.798,-0.268c0.402,-0.067 0.738,-0.101 0.973,-0.101l0,14.427c-1.611,0.537 -3.255,0.906 -4.865,1.175c-1.61,0.268 -3.288,0.402 -4.966,0.402c-7.985,0 -13.521,-2.08 -16.507,-6.274c-3.053,-4.127 -4.563,-12.179 -4.563,-24.123Z" style="fill:#000;fill-rule:nonzero;"/><path d="M859.943,68.999l0,30.8c0,11.642 -2.181,20.231 -6.576,25.733c-4.362,5.503 -11.139,8.254 -20.298,8.254c-9.227,0 -16.004,-2.751 -20.399,-8.254c-4.362,-5.502 -6.576,-14.091 -6.576,-25.733l0,-30.8c0,-11.609 2.18,-20.164 6.576,-25.7c4.361,-5.536 11.172,-8.321 20.399,-8.321c9.092,0 15.869,2.785 20.264,8.355c4.395,5.569 6.61,14.125 6.61,25.666ZM842.094,63.061c0,-4.53 -0.738,-7.818 -2.181,-9.864c-1.443,-2.047 -3.724,-3.087 -6.878,-3.087c-3.187,0 -5.502,1.04 -6.945,3.087c-1.443,2.046 -2.181,5.334 -2.181,9.864l0,42.441c0,4.53 0.738,7.851 2.181,9.965c1.443,2.114 3.758,3.187 6.945,3.187c3.12,0 5.435,-1.073 6.878,-3.187c1.443,-2.114 2.181,-5.435 2.181,-9.965l0,-42.441Z" style="fill:#000;fill-rule:nonzero;"/><path d="M955.362,132.041l-9.059,0l-4.597,-9.495c-2.617,3.59 -5.703,6.308 -9.26,8.12c-3.556,1.811 -7.482,2.751 -11.776,2.751c-9.461,0 -16.339,-3.59 -20.701,-10.737c-4.362,-7.146 -6.509,-18.52 -6.509,-34.121l0,-41.838c0,-16.305 2.416,-28.015 7.247,-35.161c4.832,-7.146 12.75,-10.736 23.687,-10.736c10.132,0 17.849,3.355 23.083,10.098c5.234,6.711 7.885,16.507 7.885,29.391l0,4.697l-19.393,0l0,-8.421c0,-6.777 -0.939,-11.709 -2.785,-14.796c-1.845,-3.087 -4.797,-4.597 -8.79,-4.597c-3.992,0 -6.945,1.544 -8.79,4.597c-1.846,3.087 -2.785,7.985 -2.785,14.796l0,61.465c0,6.777 0.939,11.709 2.785,14.796c1.845,3.087 4.798,4.597 8.79,4.597c3.993,0 6.912,-1.544 8.79,-4.597c1.846,-3.087 2.785,-7.985 2.785,-14.796l0,-14.964l-10.166,0l0,-16.07l29.559,0l0,65.021Z" style="fill:#000;fill-rule:nonzero;"/><path d="M1008.34,132.041l-1.811,-9.663c-2.483,3.523 -5.301,6.207 -8.422,7.986c-3.12,1.811 -6.441,2.684 -9.897,2.684c-5.737,0 -10.334,-2.013 -13.756,-6.039c-3.422,-4.027 -5.133,-9.495 -5.133,-16.407c0,-9.159 2.919,-17.144 8.723,-23.955c5.838,-6.811 15.199,-13.119 28.116,-18.923l0,-5.234c0,-4.395 -0.705,-7.616 -2.081,-9.595c-1.375,-2.013 -3.589,-2.986 -6.609,-2.986c-3.02,0 -5.402,1.107 -7.18,3.355c-1.778,2.248 -2.718,5.334 -2.818,9.26l-16.876,0c0.537,-8.69 3.288,-15.467 8.32,-20.299c4.999,-4.831 11.777,-7.247 20.299,-7.247c8.823,0 15.131,2.517 18.989,7.516c3.859,4.999 5.771,13.252 5.771,24.727l0,43.918c0,4.395 0.134,8.321 0.436,11.743c0.302,3.422 0.738,6.475 1.376,9.126l-17.447,0l0,0.033ZM1006.16,82.721c-6.61,3.255 -11.475,6.744 -14.561,10.535c-3.087,3.758 -4.664,8.019 -4.664,12.783c0,3.288 0.738,5.939 2.181,7.918c1.442,1.98 3.388,2.953 5.838,2.953c1.912,0 3.824,-0.638 5.703,-1.913c1.879,-1.275 3.724,-3.187 5.536,-5.737l0,-26.539l-0.033,0Z" style="fill:#000;fill-rule:nonzero;"/><rect x="1042.49" y="3.239" width="17.581" height="128.802" style="fill:#000;fill-rule:nonzero;"/><rect x="1080.07" y="3.239" width="17.581" height="128.802" style="fill:#000;fill-rule:nonzero;"/><path d="M1169.11,98.725l0,5.57c0,9.327 -2.382,16.574 -7.146,21.741c-4.764,5.166 -11.407,7.75 -19.996,7.75c-8.69,0 -15.199,-2.818 -19.527,-8.421c-4.328,-5.637 -6.475,-14.159 -6.475,-25.566l0,-30.8c0,-11.609 2.214,-20.164 6.609,-25.7c4.395,-5.536 11.24,-8.321 20.533,-8.321c9.059,0 15.803,3.154 20.299,9.495c4.495,6.308 6.743,15.87 6.743,28.619l0,14.427l-36.335,0l0,18.017c0,4.529 0.738,7.851 2.181,9.965c1.442,2.113 3.757,3.187 6.945,3.187c3.12,0 5.435,-1.074 6.878,-3.187c1.442,-2.114 2.18,-5.436 2.18,-9.965l0,-6.777l17.111,0l0,-0.034ZM1133.82,63.061l0,9.494l18.184,0l0,-9.494c0,-4.53 -0.738,-7.818 -2.18,-9.864c-1.443,-2.047 -3.725,-3.087 -6.878,-3.087c-3.188,0 -5.503,1.04 -6.945,3.087c-1.477,2.08 -2.181,5.368 -2.181,9.864Z" style="fill:#000;fill-rule:nonzero;"/><path d="M1185.62,132.041l0,-95.653l16.507,0l0,12.682c2.45,-4.697 5.301,-8.153 8.556,-10.401c3.288,-2.214 7.28,-3.456 12.045,-3.691l0.1,19.225c-1.04,-0.302 -2.214,-0.503 -3.489,-0.637c-1.275,-0.135 -2.818,-0.202 -4.596,-0.202c-4.228,0 -7.18,1.175 -8.858,3.49c-1.677,2.315 -2.516,6.844 -2.516,13.554l0,61.633l-17.749,0Z" style="fill:#000;fill-rule:nonzero;"/><path d="M1228.16,162.807l0,-16.003c0.805,0.167 1.61,0.302 2.348,0.402c0.739,0.101 1.51,0.134 2.248,0.134c3.959,0 6.878,-1.275 8.791,-3.858c1.912,-2.583 2.885,-6.509 2.885,-11.776c0,-3.49 -1.141,-10.804 -3.389,-22.01c-0.1,-0.469 -0.167,-0.771 -0.167,-0.973l-14.964,-72.335l17.212,0l11.206,80.186l8.79,-80.186l16.876,0l-18.352,97.666c-2.08,10.837 -5.234,18.42 -9.395,22.681c-4.16,4.294 -10.3,6.441 -18.352,6.441c-0.872,0 -2.281,-0.067 -4.261,-0.167c-0.637,-0.067 -1.141,-0.135 -1.476,-0.202Z" style="fill:#000;fill-rule:nonzero;"/></g></g></svg>